<?xml version="1.0" encoding="UTF-8"?>
<svg id="Layer_1" data-name="Layer 1" xmlns="http://www.w3.org/2000/svg" xmlns:xlink="http://www.w3.org/1999/xlink" viewBox="0 0 937.74 357.29">
  <defs>
    <style>
      .cls-1 {
        fill: url(#linear-gradient-2);
      }

      .cls-2 {
        fill: url(#linear-gradient);
      }

      .cls-3 {
        fill: #d879ff;
      }

      .cls-4 {
        fill: #00266a;
      }
    </style>
    <linearGradient id="linear-gradient" x1="0" y1="189.7" x2="199.1" y2="189.7" gradientUnits="userSpaceOnUse">
      <stop offset="0" stop-color="#04005f"/>
      <stop offset="0" stop-color="#070f6b"/>
      <stop offset="0" stop-color="#0f3486"/>
      <stop offset="0" stop-color="#16549f"/>
      <stop offset="0" stop-color="#1c6fb4"/>
      <stop offset="0" stop-color="#2085c5"/>
      <stop offset="0" stop-color="#2496d2"/>
      <stop offset="0" stop-color="#27a2db"/>
      <stop offset="0" stop-color="#28a9e0"/>
      <stop offset="0" stop-color="#29abe2"/>
      <stop offset=".07" stop-color="#2495d1"/>
      <stop offset=".23" stop-color="#1a68af"/>
      <stop offset=".38" stop-color="#124292"/>
      <stop offset=".54" stop-color="#0c257c"/>
      <stop offset=".7" stop-color="#07106c"/>
      <stop offset=".85" stop-color="#040463"/>
      <stop offset="1" stop-color="#040060"/>
    </linearGradient>
    <linearGradient id="linear-gradient-2" x1="51.21" y1="316.12" x2="221.2" y2="316.12" gradientTransform="translate(17.27 -78.21) rotate(4.34) scale(.92 .89) skewX(1.14)" gradientUnits="userSpaceOnUse">
      <stop offset="0" stop-color="#f795ff"/>
      <stop offset=".12" stop-color="#e688ff"/>
      <stop offset=".37" stop-color="#bb67ff"/>
      <stop offset=".7" stop-color="#7732ff"/>
      <stop offset="1" stop-color="#3600ff"/>
    </linearGradient>
  </defs>
  <g>
    <path class="cls-2" d="M190.9,199.39l-15.58,2.6c-31.94,5.32-57.18,29.98-63.26,61.79l-2.88,15.06c-2.03,10.63-17.26,10.63-19.29,0l-2.88-15.06c-6.07-31.81-31.32-56.46-63.26-61.79l-15.58-2.6c-10.94-1.82-10.94-17.54,0-19.37l15.58-2.6c31.94-5.32,57.18-29.98,63.26-61.79l2.88-15.06c2.03-10.63,17.26-10.63,19.29,0l2.88,15.06c6.07,31.81,31.32,56.46,63.26,61.79l15.58,2.6c10.94,1.82,10.94,17.54,0,19.37Z"/>
    <path class="cls-1" d="M190.48,253.03l-7.32-2.12c-26.57-7.7-55.08,2.6-70.61,25.5l-4.71,6.95c-5.88,8.67-19.41,3.1-17.49-7.2l2.63-14.05c4.72-25.23-6.13-50.84-27.54-65l-11.06-7.32c-9.23-6.1-2.61-20.41,8.01-17.33l7.32,2.12c26.57,7.7,55.08-2.6,70.61-25.5l4.71-6.95c5.88-8.67,19.41-3.1,17.49,7.2l-2.63,14.05c-4.72,25.23,6.13,50.84,27.54,65l11.06,7.32c9.23,6.1,2.61,20.41-8.01,17.33Z"/>
  </g>
  <g>
    <path class="cls-4" d="M314.14,234.37v-47.42c5.37-1.07,10.16-1.82,14.36-2.26,4.19-.43,8.23-.65,12.1-.65,7.53,0,16.45.97,26.78,2.9v81.94c-6.24,2.37-14.95,4.95-26.13,7.74-11.19,2.79-24.2,4.19-39.04,4.19s-28.66-2.31-39.52-6.94c-10.86-4.62-19.73-10.91-26.62-18.87-6.89-7.95-11.89-17.31-15-28.07-3.12-10.75-4.68-22.26-4.68-34.52s1.88-23.01,5.65-33.55c3.76-10.54,9.36-19.68,16.78-27.42,7.42-7.74,16.61-13.87,27.58-18.39,10.97-4.52,23.66-6.77,38.07-6.77,7.53,0,15.81.86,24.84,2.58,9.03,1.72,18.92,4.73,29.68,9.03-.22,3.66-.65,7.1-1.29,10.32-.65,3.23-1.45,6.51-2.42,9.84-.97,3.34-2.15,6.89-3.55,10.65-1.4,3.76-3.06,8.01-5,12.74-7.31-3.01-14.09-5.21-20.32-6.61-6.24-1.4-11.61-2.1-16.13-2.1-7.1,0-13.12,1.08-18.07,3.23-4.95,2.15-8.93,5.06-11.94,8.71-3.01,3.66-5.22,7.9-6.61,12.74-1.4,4.84-2.1,9.84-2.1,15,0,14.41,3.12,25,9.36,31.78,6.24,6.78,15.37,10.16,27.42,10.16h5.81Z"/>
    <path class="cls-4" d="M386.08,110.17c4.73-1.07,9.41-1.82,14.03-2.26,4.62-.43,9.08-.65,13.39-.65,4.08,0,8.49.22,13.23.65,4.73.43,9.36,1.18,13.87,2.26v89.69c0,12.9,2.15,21.73,6.45,26.45,4.3,4.73,10.86,7.1,19.68,7.1,3.65,0,6.45-.11,8.39-.32,1.94-.21,3.33-.43,4.19-.65v-122.27c4.73-1.07,9.41-1.82,14.03-2.26,4.62-.43,9.08-.65,13.39-.65,4.08,0,8.49.22,13.23.65,4.73.43,9.36,1.18,13.87,2.26v159.05c-3.66,1.29-8.02,2.58-13.07,3.87-5.06,1.29-10.43,2.53-16.13,3.71-5.7,1.18-11.56,2.1-17.58,2.74-6.02.65-11.94.97-17.74.97-10.97,0-21.51-.86-31.62-2.58-10.11-1.72-18.98-5.21-26.62-10.48-7.64-5.27-13.71-12.91-18.23-22.91-4.52-10-6.77-23.39-6.77-40.17v-94.2Z"/>
    <path class="cls-4" d="M560.29,110.17c4.73-1.07,9.41-1.82,14.03-2.26,4.62-.43,9.08-.65,13.39-.65,4.08,0,8.49.22,13.23.65,4.73.43,9.36,1.18,13.87,2.26v166.47c-5.6.86-10.65,1.5-15.16,1.94-4.52.43-8.6.64-12.26.64s-7.74-.22-12.26-.64c-4.52-.43-9.47-1.08-14.84-1.94V110.17Z"/>
    <path class="cls-4" d="M641.58,110.17c4.73-1.07,9.41-1.82,14.03-2.26,4.62-.43,9.08-.65,13.39-.65,4.08,0,8.49.22,13.23.65,4.73.43,9.36,1.18,13.87,2.26l-.32,121.3h60.97c1.07,4.3,1.77,8.28,2.1,11.94.32,3.66.48,7.21.48,10.65s-.16,7.05-.48,10.81c-.32,3.77-1.02,7.8-2.1,12.1h-115.49l.32-166.79Z"/>
    <path class="cls-4" d="M772.56,110.81c9.03-1.07,18.6-2.1,28.71-3.06,10.11-.97,19.57-1.45,28.39-1.45,17.42,0,32.31,2.05,44.68,6.13,12.37,4.09,22.53,9.84,30.49,17.26,7.95,7.42,13.76,16.4,17.42,26.94,3.65,10.54,5.48,22.26,5.48,35.17,0,13.55-1.89,25.81-5.65,36.78-3.77,10.97-9.68,20.32-17.74,28.07-8.07,7.74-18.5,13.71-31.29,17.9-12.8,4.19-28.23,6.29-46.29,6.29-10.54,0-19.95-.38-28.23-1.13-8.28-.76-16.94-1.77-25.97-3.06V110.81ZM827.08,234.7c.86,0,1.99.11,3.39.32,1.4.22,3.49.32,6.29.32,12.04,0,21.02-3.39,26.94-10.16,5.91-6.77,8.87-17.9,8.87-33.39,0-13.76-2.9-23.82-8.71-30.16-5.81-6.34-14.09-9.52-24.84-9.52-2.58,0-4.95.11-7.1.32-2.15.22-3.77.43-4.84.64v81.62Z"/>
  </g>
  <path class="cls-3" d="M663.83,177.81h0c-14.88,2.19-26.84,13.39-30.01,28.09l-.45,2.11c-1.36,6.32-10.37,6.32-11.73,0l-.45-2.11c-3.17-14.7-15.13-25.89-30.01-28.09h0c-6.84-1.01-6.84-10.87,0-11.88h0c14.88-2.19,26.84-13.39,30.01-28.09l.45-2.11c1.36-6.32,10.37-6.32,11.73,0l.45,2.11c3.17,14.7,15.13,25.89,30.01,28.09h0c6.84,1.01,6.84,10.87,0,11.88Z"/>
</svg>